<?xml version="1.0" encoding="UTF-8" standalone="no"?>
<!DOCTYPE svg PUBLIC "-//W3C//DTD SVG 1.1//EN" "http://www.w3.org/Graphics/SVG/1.1/DTD/svg11.dtd">
<svg version="1.1" xmlns="http://www.w3.org/2000/svg" xmlns:xlink="http://www.w3.org/1999/xlink" preserveAspectRatio="xMidYMid meet" viewBox="287.8425075394547 414.97523182082716 41.613402061855936 53.9706514066159" width="37.11" height="49.47"><defs><path d="M291.81 435.83L310.24 435.83L323.99 435.83L318.14 465.95L297.07 465.95L291.81 435.83Z" id="a3tOSl3Dmm"></path><path d="M289.34 425.75L326.46 425.75L326.46 435.03L289.34 435.03L289.34 425.75Z" id="bze3EWFBQ"></path><path d="M295.82 419.57L321.53 416.48L321.53 425.75L294.27 425.75L295.82 419.57Z" id="b1LnpQeCHc"></path><path d="M304.16 444.17C304.16 445.48 303.17 446.55 301.94 446.55C300.72 446.55 299.73 445.48 299.73 444.17C299.73 442.86 300.72 441.79 301.94 441.79C303.17 441.79 304.16 442.86 304.16 444.17Z" id="a3Wb5JR0dI"></path><path d="M315.41 444.17C315.41 445.48 314.42 446.55 313.2 446.55C311.98 446.55 310.99 445.48 310.99 444.17C310.99 442.86 311.98 441.79 313.2 441.79C314.42 441.79 315.41 442.86 315.41 444.17Z" id="a2RGzenCP"></path><path d="" id="e13nsAThym"></path><path d="M313.2 452.77C313.14 453.78 312.63 454.83 311.66 455.92C310.69 457 309.31 457.54 307.51 457.53C305.83 457.43 304.5 456.84 303.51 455.76C302.52 454.67 302 453.68 301.94 452.77" id="abCjK7Rpn"></path></defs><g><g><use xlink:href="#a3tOSl3Dmm" opacity="1" fill="#ffffff" fill-opacity="0"></use><g><use xlink:href="#a3tOSl3Dmm" opacity="1" fill-opacity="0" stroke="#ffffff" stroke-width="3" stroke-opacity="1"></use></g></g><g><g><use xlink:href="#bze3EWFBQ" opacity="1" fill-opacity="0" stroke="#ffffff" stroke-width="3" stroke-opacity="1"></use></g></g><g><g><use xlink:href="#b1LnpQeCHc" opacity="1" fill-opacity="0" stroke="#ffffff" stroke-width="3" stroke-opacity="1"></use></g></g><g><use xlink:href="#a3Wb5JR0dI" opacity="1" fill="#ffffff" fill-opacity="1"></use></g><g><use xlink:href="#a2RGzenCP" opacity="1" fill="#ffffff" fill-opacity="1"></use></g><g><g><use xlink:href="#e13nsAThym" opacity="1" fill-opacity="0" stroke="#ffffff" stroke-width="2" stroke-opacity="1"></use></g></g><g><g><use xlink:href="#abCjK7Rpn" opacity="1" fill-opacity="0" stroke="#ffffff" stroke-width="2" stroke-opacity="1"></use></g></g></g></svg>