<svg version="1.1" xmlns="http://www.w3.org/2000/svg" viewBox="0 0 934.28515625 190.69140625" width="2802.85546875" height="572.07421875">
  <!-- svg-source:excalidraw -->
  
  <defs>
    <style>
      @font-face {
        font-family: "Virgil";
        src: url("https://excalidraw.com/Virgil.woff2");
      }
      @font-face {
        font-family: "Cascadia";
        src: url("https://excalidraw.com/Cascadia.woff2");
      }
    </style>
  </defs>
  <rect x="0" y="0" width="934.28515625" height="190.69140625" fill="#ffffff"></rect><g transform="translate(236.37890625 10.421875) rotate(0 10.5 21.5)"><text x="0" y="35" font-family="Cascadia, Segoe UI Emoji" font-size="36px" fill="#000000" text-anchor="start" style="white-space: pre;" direction="ltr">E</text></g><g transform="translate(342.515625 10) rotate(0 10.5 21.5)"><text x="0" y="35" font-family="Cascadia, Segoe UI Emoji" font-size="36px" fill="#000000" text-anchor="start" style="white-space: pre;" direction="ltr">A</text></g><g transform="translate(447.4765625 10.671875) rotate(0 10.5 21.5)"><text x="0" y="35" font-family="Cascadia, Segoe UI Emoji" font-size="36px" fill="#000000" text-anchor="start" style="white-space: pre;" direction="ltr">A</text></g><g transform="translate(543.26953125 10.08203125) rotate(0 10.5 21.5)"><text x="0" y="35" font-family="Cascadia, Segoe UI Emoji" font-size="36px" fill="#000000" text-anchor="start" style="white-space: pre;" direction="ltr">E</text></g><g><g transform="translate(229.9453125 58.27734375) rotate(0 17.96659303084016 0.9975553439915643)"><path d="M-1.1936888538300992 1.0453367672860623 C5.0048419393599035 1.274343383560578, 30.463995520025488 0.2731898588438829, 37.12687491551041 0.27357785329222684 M0.38048576856963345 0.5485346247721465 C6.378593079997227 1.0556530877916765, 29.520820002211263 1.9377694479593386, 35.89065362627618 1.67572522749193" stroke="#000000" stroke-width="1" fill="none"></path></g></g><g><g transform="translate(333.705078125 57.44140625) rotate(0 18.700561058423474 1.1380775893200052)"><path d="M0.668889943510294 0.7864631853997708 C7.029613272100687 1.0113461139301458, 31.831855384260418 0.6366963428755602, 37.84020368233323 0.5664811573922635 M-0.4390815654862672 0.15375241239555182 C5.8063693624269215 0.6545822516052674, 30.386806295169514 1.8821168361076466, 36.97847999568097 2.122402766244486" stroke="#000000" stroke-width="1" fill="none"></path></g></g><g><g transform="translate(439.701171875 58.34765625) rotate(0 18.725615017893745 -0.09265339992006716)"><path d="M0.7864631853997708 0.16442243233323106 C7.202101322263479 -0.0179844779272873, 31.590472384542224 -0.3620830538372198, 37.71101240739226 -0.4255515180528163 M-0.2597823716048151 -0.7948597360309213 C6.069413638925179 -0.9151469009773184, 30.628697220599275 0.3589782561206569, 36.781463301395995 0.6095529361907392" stroke="#000000" stroke-width="1" fill="none"></path></g></g><g><g transform="translate(537.158203125 60.71484375) rotate(0 18.86010947565549 0.4117649907339569)"><path d="M0.16442243233323106 0.03523115739226346 C6.172770730406047 -0.03498402809103325, 30.59169298782945 0.3576582235594591, 36.71897973194719 0.3651720724999905 M-1.2083945200312884 -0.9918764303158969 C5.109684486342594 -0.941071214977031, 32.15555864061229 1.456583704150592, 38.92861347134225 1.8154064117837696" stroke="#000000" stroke-width="1" fill="none"></path></g></g><g><g transform="translate(239.19140625 71.26953125) rotate(0 -22.591612906264604 19.461910469913875)"><path d="M-0.5812077082693576 0.5227141298353672 C-8.166461432285761 6.719705056895812, -38.413142035939565 31.51829777533809, -45.93492453803214 37.53464218750596 M1.314519515549764 -0.24846489734016353 C-6.327503693046202 6.13873588962791, -38.616110427054416 32.87109027061301, -46.49774532807897 39.17228583716788" stroke="#000000" stroke-width="1" fill="none"></path></g><g transform="translate(239.19140625 71.26953125) rotate(0 -22.591612906264604 19.461910469913875)"><path d="M-30.33254825645617 14.719866795357994 C-34.85869712147694 21.814184436543492, -40.43037548110659 26.923285193750914, -45.30218627719115 38.00323124327697 M-30.70519990236989 14.452266894173555 C-37.37240131806423 21.451864045321262, -40.940331803059884 30.946067659053323, -47.467344200666055 39.665107185998934" stroke="#000000" stroke-width="1" fill="none"></path></g><g transform="translate(239.19140625 71.26953125) rotate(0 -22.591612906264604 19.461910469913875)"><path d="M-17.40686639163073 30.557556767683224 C-25.401205476155308 33.396772591144256, -34.39452489026121 34.31337574674784, -45.30218627719115 38.00323124327697 M-17.77951803754445 30.289956866498784 C-28.5967622783186 32.16969683875968, -36.407999130524004 36.46462575238142, -47.467344200666055 39.665107185998934" stroke="#000000" stroke-width="1" fill="none"></path></g></g><g transform="translate(10 119.765625) rotate(0 148 11)"><text x="0" y="17" font-family="Cascadia, Segoe UI Emoji" font-size="16px" fill="#000000" text-anchor="start" style="white-space: pre;" direction="ltr">代表在編譯後程式碼的第幾列（column）</text></g><g><g transform="translate(351.32421875 74.73828125) rotate(0 -1.930990823636975 36.92757640518249)"><path d="M0.5351119436323644 -0.8113689221441746 C-0.20497068734039292 11.51507392289738, -2.8430984095270153 62.27228637648127, -3.4546966960173506 74.66652173250915 M-0.64309301530011 1.3770584483910353 C-1.6265129273211651 13.319607811045525, -3.883206998358515 60.810594891182475, -4.397093590906303 73.04600854788909" stroke="#000000" stroke-width="1" fill="none"></path></g><g transform="translate(351.32421875 74.73828125) rotate(0 -1.930990823636975 36.92757640518249)"><path d="M-14.711192625459665 44.433784607237534 C-8.171421345808477 55.86853158609266, -6.6007943329657985 66.05860042890902, -5.430053853055876 75.0211943258811 M-12.75763151876294 44.78196596484478 C-9.739971180543138 52.824752278951166, -7.265598184402322 61.547524142452446, -3.898957057482045 72.59461347025821" stroke="#000000" stroke-width="1" fill="none"></path></g><g transform="translate(351.32421875 74.73828125) rotate(0 -1.930990823636975 36.92757640518249)"><path d="M5.788583856931895 45.37142342779975 C4.488836097153748 56.53926576280811, -1.77452491787425 66.37101600146502, -5.430053853055876 75.0211943258811 M7.74214496362862 45.71960478540699 C4.4062143189536185 53.29204607602688, 0.5331498352228987 61.72449263781907, -3.898957057482045 72.59461347025821" stroke="#000000" stroke-width="1" fill="none"></path></g></g><g transform="translate(223.95703125 158.69140625) rotate(0 117.5 11)"><text x="0" y="17" font-family="Cascadia, Segoe UI Emoji" font-size="16px" fill="#000000" text-anchor="start" style="white-space: pre;" direction="ltr">屬於 source 欄位中的哪個檔案</text></g><g><g transform="translate(458.05859375 77.5625) rotate(0 15.77862942379349 19.24584145409051)"><path d="M-0.587056215852499 -0.9905954159796238 C4.911646063167634 5.278434485527685, 26.759901877436945 31.680122362240205, 32.1443150634395 38.30034321223384 M1.3056005414854734 1.1037380452919754 C6.7702317442912925 7.457848005671983, 26.540889074700114 33.01312145254108, 31.4948241047917 39.48227832416071" stroke="#000000" stroke-width="1" fill="none"></path></g><g transform="translate(458.05859375 77.5625) rotate(0 15.77862942379349 19.24584145409051)"><path d="M8.653042513994926 27.01304956243206 C14.112147073192208 29.485647636203442, 19.689391233016888 33.871694052132526, 32.033727970754924 40.910792234782114 M10.993154047174805 26.53686768838037 C15.50407309418933 29.432975670828224, 23.206040561143787 34.590129804730346, 32.3400928441791 39.449597293008104" stroke="#000000" stroke-width="1" fill="none"></path></g><g transform="translate(458.05859375 77.5625) rotate(0 15.77862942379349 19.24584145409051)"><path d="M22.23504016476138 16.530859387922177 C24.639162669224703 21.34101667235305, 27.101487278682903 28.13106726681309, 32.033727970754924 40.910792234782114 M24.57515169794126 16.054677513870487 C25.122427830359364 22.01109743080413, 28.88902532768693 30.205455478988803, 32.3400928441791 39.449597293008104" stroke="#000000" stroke-width="1" fill="none"></path></g></g><g transform="translate(451.453125 129.05078125) rotate(0 171.5 11)"><text x="0" y="17" font-family="Cascadia, Segoe UI Emoji" font-size="16px" fill="#000000" text-anchor="start" style="white-space: pre;" direction="ltr">代表在編譯前程式碼的第幾行（line number）</text></g><g><g transform="translate(560.16015625 73.53515625) rotate(0 28.508463235399688 10.471951208161215)"><path d="M0.6277042306959628 -0.08908007517457017 C10.051529264201722 3.5519247812529406, 48.165579135964315 17.184534633407992, 57.5188162483275 20.67599801644683 M-0.5018897775281221 -1.181451059980318 C8.749898672255998 2.751620969272529, 47.581272125892966 18.2308514791696, 56.99900869007222 22.1253534763027" stroke="#000000" stroke-width="1" fill="none"></path></g><g transform="translate(560.16015625 73.53515625) rotate(0 28.508463235399688 10.471951208161215)"><path d="M26.86997424621347 22.40522633478097 C38.16058302957737 21.373933222453015, 49.89900850700539 20.934305675745627, 55.54920429836027 22.617561148749665 M27.59610417481724 21.42300996728293 C34.204087192222026 20.77296709017597, 42.75594552350425 21.52139686044955, 56.555037426827475 21.188505389066414" stroke="#000000" stroke-width="1" fill="none"></path></g><g transform="translate(560.16015625 73.53515625) rotate(0 28.508463235399688 10.471951208161215)"><path d="M34.578056220696865 3.386670273384418 C42.74396660024845 9.64789420409608, 51.54312952794403 16.46046373654552, 55.54920429836027 22.617561148749665 M35.304186149300634 2.4044539058863776 C39.88080947735735 6.835434958267048, 46.368228906227145 12.677563411407853, 56.555037426827475 21.188505389066414" stroke="#000000" stroke-width="1" fill="none"></path></g></g><g transform="translate(628.28515625 85.984375) rotate(0 148 11)"><text x="0" y="17" font-family="Cascadia, Segoe UI Emoji" font-size="16px" fill="#000000" text-anchor="start" style="white-space: pre;" direction="ltr">代表在編譯前程式碼的第幾列（column）</text></g></svg>