<svg version="1.1" xmlns="http://www.w3.org/2000/svg" viewBox="0 0 704.6770833333335 233.6914062499999" width="704.6770833333335" height="233.6914062499999">
  <!-- svg-source:excalidraw -->
  
  <defs>
    <style>
      @font-face {
        font-family: "Virgil";
        src: url("https://excalidraw.com/Virgil.woff2");
      }
      @font-face {
        font-family: "Cascadia";
        src: url("https://excalidraw.com/Cascadia.woff2");
      }
    </style>
  </defs>
  <rect x="0" y="0" width="704.6770833333335" height="233.6914062499999" fill="#ffffff"></rect><g transform="translate(15.377604166666742 99.541015625) rotate(0 48.160807291666686 40.7421875)"><path d="M-1.3306780867278576 -1.1619244404137135 C24.640775315028208 -2.472105727825086, 47.3147624387081 0.8472823041344477, 98.02519068991148 1.3222406320273876 M-0.03183791972696781 -0.848223140463233 C37.359696676051215 -0.12437541255773521, 75.78372295578936 -1.075314889047756, 95.42804793578887 0.6443563792854548 M98.18215308462584 -1.9460041113197803 C96.44265120311809 22.29022421060654, 96.47910003944469 43.93103550982778, 97.45495174204314 80.80236307904124 M96.20272378188872 -0.9778765346854925 C97.38106554333115 18.67951373521646, 96.71052884642029 37.95446725279908, 97.2978641794374 82.02862853743136 M96.55158088480437 82.1877133063972 C69.5193212759223 82.33153233399996, 43.69569890458905 80.94322535863527, -0.30056069418787956 81.11910585686564 M95.98673985463881 80.74634618498385 C67.58738151694345 82.22746930454439, 38.457697480395545 80.39081434343522, -0.34493795968592167 80.98412300087512 M-1.058210115879774 80.62387136742473 C-2.1856633860603325 54.09743417960999, -2.4291904408470146 27.621820203465177, -0.5706516318023205 -1.9249187298119068 M-0.27457729913294315 81.36356855370104 C0.19262593432649744 63.251188318725326, -0.06808639124647009 47.09926683924277, -0.6648075375705957 -0.9246460702270269" stroke="#000000" stroke-width="1" fill="none"></path></g><g><g transform="translate(30.283203125000114 123.30078125) rotate(0 30.95074161216617 2.5948400668977456)"><path d="M-0.6596359379589557 -0.48636121675372124 C2.1258547417819504 -1.0265233323805925, 12.347126137465239 -5.568293936302303, 17.35301858112216 -3.8046539855500443 C22.358911024779083 -2.0410140347977856, 24.980015336722136 8.03689877531594, 29.375718723982573 10.095478487759829 C33.77142211124301 12.154058200203718, 38.19633883163333 9.62167666827639, 43.72723890468478 8.546824289113284 C49.25813897773624 7.471971909950177, 59.54729291126132 4.561796578516563, 62.56111916229129 3.646364212781191 M1.1949164652731272 -1.7873048008885235 C3.7364286193158476 -2.5848808936019387, 11.559464310994372 -7.002319511513574, 16.22526881008409 -5.333851764242513 C20.891073309173805 -3.665384016971452, 24.481474313428627 5.783163374290899, 29.189743459811435 8.223501682737842 C33.89801260619424 10.663839991184785, 39.06479595183395 9.99532587236104, 44.47488368838094 9.308178086439147 C49.88497142492793 8.621030300517255, 59.108023281386124 5.357492872833585, 61.65026987909339 4.100614967206493" stroke="#000000" stroke-width="1" fill="none"></path></g></g><g><g transform="translate(28.037109375000114 141.72200520833337) rotate(0 32.00334003638632 1.6469848088520962)"><path d="M-0.5930625669658184 -0.5231700070202351 C-0.687246814618508 -0.33174365833401687, -1.36497450065281 1.1136220434473745, 0.40355987623333944 0.3942544095218181 C2.172094253119489 -0.32511322440373835, 5.38208112261357 -5.397069554279324, 10.018143694351078 -4.839375810573574 C14.654206266088586 -4.281682066867824, 21.855827504479247 1.3276805221206551, 28.219935306658385 3.7404168717563153 C34.58404310883752 6.1531532213919755, 42.353766272548214 9.794450506154002, 48.2027905074259 9.637042287240387 C54.05181474230359 9.479634068326773, 60.754562248869085 3.868499186883332, 63.314080715924504 2.7959675582746284 M1.2964408560376617 1.8165617939550431 C1.4697788239301495 1.7028547239024194, 0.6640463196351771 -0.08236183510367656, 2.517324753878638 -1.5213367742579431 C4.370603188122099 -2.9603117134122097, 8.094279584829755 -7.78509991688351, 12.416111461498426 -6.8172878409705575 C16.7379433381671 -5.849475765057605, 22.642194237819794 1.4462656036402142, 28.44831601389067 4.285535681219772 C34.25443778996154 7.124805758799329, 41.19423630318195 10.66329922706403, 47.25284211792366 10.218332624506788 C53.311447932665374 9.773366021949546, 61.94116929681248 2.9973104626653955, 64.79995090234094 1.6157360658763218" stroke="#000000" stroke-width="1" fill="none"></path></g></g><g><g transform="translate(27.425130208333485 161.99869791666663) rotate(0 33.86774588601198 -2.228353530512095)"><path d="M0.814753843098879 0.182760225981474 C1.9510237648255233 -0.5556979332533084, 4.2015095797677455 -2.669768605712356, 7.838269393394353 -3.8412104176977895 C11.47502920702096 -5.012652229683223, 19.627802060130577 -7.455839638660313, 22.635312724858522 -6.845890645931126 C25.642823389586468 -6.235941653201939, 22.75063121923135 -1.6006204731762028, 25.883333381762032 -0.18151646132266708 C29.016035544292713 1.2375875505308689, 34.420059448563336 2.0667900409135997, 41.431525700042606 1.6687334251900894 C48.442991951521876 1.270676809466579, 63.54077153545286 -1.9019994809395673, 67.95213089063763 -2.5698561556637287 M-0.21663911861367535 -0.7668946007173509 C0.6389536320614667 -1.8930765870161705, 3.0502262089432146 -4.709361676634775, 6.690129814424203 -5.546826885767864 C10.330033419905192 -6.384292094900952, 18.47067556402233 -6.828933279939578, 21.62278251427226 -5.791685855515884 C24.77488946452219 -4.75443843109219, 22.0074730278168 -0.659678244916684, 25.602771515923788 0.6766576607743038 C29.198070004030775 2.0129935664652914, 36.44235976379257 2.985306470697376, 43.19457344291418 2.226329578630043 C49.946787122035786 1.4673526865627102, 61.82735362812359 -2.8678041724312155, 66.11605359065346 -3.877203691629693" stroke="#000000" stroke-width="1" fill="none"></path></g></g><g transform="translate(10 71.06445312500011) rotate(0 51.5 9.5)"><text x="0" y="15" font-family="Cascadia, Segoe UI Emoji" font-size="16px" fill="#000000" text-anchor="start" style="white-space: pre;" direction="ltr">Source code</text></g><g><g transform="translate(122.63997395833348 136.77734375) rotate(0 26.5694629709624 1.4494722984300665)"><path d="M-0.7949406512081623 1.0198255307972433 C7.905497623069405 1.2744393991927307, 42.615988260424736 2.1627000418802105, 51.64285857205582 2.4181890018284324 M0.9885767775680869 0.5096299891266973 C10.119815979425058 0.3658190428807091, 45.251223840174305 0.7593701333397378, 53.93386659313296 0.8063744165096431" stroke="#000000" stroke-width="1" fill="none"></path></g><g transform="translate(122.63997395833348 136.77734375) rotate(0 26.5694629709624 1.4494722984300665)"><path d="M30.909914294736975 8.237785251121535 C37.03040072846299 9.052608019919422, 43.51848378526144 5.235284043257053, 55.57070948098158 0.8494137570355087 M30.141760237994188 8.673312220032825 C39.449886529915375 5.569405467447116, 47.329641063754124 4.11785559239218, 54.69270471956884 0.6815756026748567" stroke="#000000" stroke-width="1" fill="none"></path></g><g transform="translate(122.63997395833348 136.77734375) rotate(0 26.5694629709624 1.4494722984300665)"><path d="M31.058351884779984 -9.705541632535132 C37.274386601487265 -4.345717070410375, 43.724862637034676 -3.6170559281251036, 55.57070948098158 0.8494137570355087 M30.290197828037197 -9.270014663623842 C39.62364009135247 -5.599950385365082, 47.447344542770225 -0.27609417598761343, 54.69270471956884 0.6815756026748567" stroke="#000000" stroke-width="1" fill="none"></path></g></g><g transform="translate(248.98111979166674 86.38997395833337) rotate(0 15.888671875 13.623046875)"><path d="M1.0643730573356152 -1.6481493525207043 L29.95994822308421 0.5005202479660511 L32.39023331925273 28.038491148501635 L1.8148230724036694 26.570621747523546" stroke="none" stroke-width="0" fill="#e64980"></path><path d="M0.559132594615221 1.8894746713340282 C7.202773235188943 0.7895036706435349, 15.293210292998992 1.922250009487834, 33.12724985554814 1.3176209144294262 M0.9957022275775671 -0.45777260325849056 C8.611006007788092 0.7388495454189978, 14.545849811802329 0.4814201244709693, 32.44293918274343 0.9571339581161737 M31.918947357684374 -0.6522534675896168 C30.69464344377593 5.9789206032328375, 32.976144617749014 15.987211831037714, 32.235496778041124 26.750910323113203 M30.872171303257346 0.420823285356164 C31.563323647651487 9.272551285215743, 32.00161454168301 19.549520755412235, 32.04574759863317 27.368271121755242 M32.25885321572423 26.189513724297285 C25.26482770344228 25.79415721088044, 15.637764624021653 26.03292924552552, -1.6985040716826916 26.756049554795027 M32.37599595449865 26.78665710426867 C21.067155489672587 27.97486097432229, 9.545506415837735 26.92290259219262, -0.8271767888218164 26.595320532098413 M0.9813159890472889 28.350201051682234 C0.23225544930937758 19.01989924971349, -0.7635337209558202 9.673892339102167, 0.27068187668919563 -1.9151303358376026 M0.011997958645224571 26.399555513635278 C0.980839756264686 20.82771984034116, 0.4233153731966013 14.106052395196457, 0.10828467272222042 -0.9905630256980658" stroke="#000000" stroke-width="1" fill="none"></path></g><g transform="translate(217.47721354166663 128.93229166666652) rotate(0 15.888671875 13.623046875)"><path d="M-0.4395688362419605 1.572705764323473 L31.857293408364058 -0.7500411085784435 L30.542991559952497 27.831527967005968 L-0.5049109049141407 26.691802639514208" stroke="none" stroke-width="0" fill="#228be6"></path><path d="M0.9813159890472889 1.1041073016822338 C11.56824669082198 1.1572482972256695, 21.777144708270498 1.4182104258648907, 32.048025626689196 -1.9151303358376026 M0.011997958645224571 -0.8465382363647223 C8.289677340912021 0.166586596749039, 15.26903786026378 -0.0929084827683255, 31.88562842272222 -0.9905630256980658 M32.27786399796605 0.6128895692527294 C32.34521298963773 11.438651602660684, 30.87734358865964 17.53862551961356, 31.115832943469286 27.457951705902815 M32.357264718040824 -0.634951701387763 C31.756889556645547 5.311708832388831, 31.076671158074532 12.74971191072109, 31.25929751060903 26.636072108522058 M32.257994312793016 28.729410331696272 C24.54585755473454 27.830843226277285, 14.18054162797489 27.406571285092287, -0.8152725510299206 29.22478298470378 M31.502555510029197 26.942962119355798 C19.698882638334908 27.580968367893, 9.474698520913076 27.588589835006495, 0.8162303771823645 27.502630719915032 M0.07026650384068489 27.08050064370036 C-1.5696557769897481 20.499008080743806, -1.9180870065811177 15.119217635707173, 1.321237463504076 1.4536008052527905 M0.485895236954093 27.89507676102221 C-0.9068299264126836 20.126671868380072, -0.9159934848958073 13.301880028106096, 0.18624879978597164 0.4158144686371088" stroke="#000000" stroke-width="1" fill="none"></path></g><g transform="translate(280.5761718750001 127.59765624999989) rotate(0 15.888671875 13.623046875)"><path d="M1.572705764323473 0.07994965836405754 L31.027302641421556 -1.2343521900475025 L32.36277796700597 26.74118284508586 L-0.5542911104857922 27.059899490326643" stroke="none" stroke-width="0" fill="#7950f2"></path><path d="M1.1041073016822338 0.363559503108263 C12.445387667768955 -0.7881477447135694, 23.770962925213098 0.11476379913256096, 29.862213414162397 -1.2564412169158459 M-0.8465382363647223 0.7527924384921789 C6.917266914188077 0.19145542286241835, 13.53124029289029 0.10447204016054457, 30.786780724301934 0.5321865286678076 M32.39023331925273 0.7923973985016346 C33.34458217786778 5.253074533884502, 29.82072756456364 11.195582266191197, 31.989201705902815 25.841483134776354 M31.142392048612237 0.2464223112910986 C30.9310232121843 5.071266991264565, 32.10870579074799 10.492079917697993, 31.167322108522058 26.891437968239188 M33.26066033169627 28.42080881074071 C21.609555840932444 26.538063130774752, 10.346798975901038 26.5071901897576, 1.9786892347037792 28.554142136126757 M31.474212119355798 26.77915092371404 C21.17008506433558 28.079164688071252, 10.367615495277274 27.97500372358227, 0.2565369699150324 26.542168518528342 M-0.16559310629963875 25.901259560137987 C-0.7348704471314704 15.130784334269265, 0.14124594786517264 7.723243220949371, 1.4536008052527905 -1.2355296425521374 M0.6489830110222101 26.30501880310476 C-0.8803466166482394 18.464477324447216, -1.2144781555161899 11.769586709437133, 0.4158144686371088 -0.21978441812098026" stroke="#000000" stroke-width="1" fill="none"></path></g><g transform="translate(193.47330729166674 177.0800781249999) rotate(0 15.888671875 13.623046875)"><path d="M0.07994965836405754 -0.7500411085784435 L30.542991559952497 0.5854342170059681 L31.27243284508586 26.691802639514208 L-0.186194259673357 27.462985057383776" stroke="none" stroke-width="0" fill="#fab005"></path><path d="M0.363559503108263 1.3807745389640331 C11.136235875226703 1.4663086812910477, 23.80761296145647 -2.090558322149809, 30.520902533084154 -1.6739817447960377 M0.7527924384921789 0.043798455968499184 C8.500589772618698 0.053310741795939975, 16.718928107111427 -0.7215556603532605, 32.30953027866781 -0.8240746762603521 M32.569741148501635 1.8148230724036694 C31.170057855522828 3.98895013874062, 31.184019051468567 11.607821315184992, 30.372733134776354 25.28708628937602 M32.0237660612911 -0.9486116673797369 C31.501553473348395 9.425810331824323, 31.41730332123734 17.783457199802797, 31.422687968239188 27.656852373853326 M32.95205881074071 27.916790764778852 C22.319216400002915 27.72819812812704, 13.614615719001446 29.460462289236965, 1.3080483861267567 28.049740474671125 M31.31040092371404 27.44892610050738 C21.84410929281512 27.360220387336085, 10.886322529469908 27.406303539630244, -0.7039252314716578 28.071245381608605 M-1.3448341898620129 26.754914920777082 C-1.7028378582090227 17.020287011688197, 1.3116650247484358 7.478205947081733, -1.2355296425521374 -0.25137563422322273 M-0.9410749468952417 26.617332169786096 C-1.0826259771656623 15.593522141574795, 0.053861327998674824 6.282551239950408, -0.21978441812098026 0.7863528821617365" stroke="#000000" stroke-width="1" fill="none"></path></g><g transform="translate(250.53059895833337 58.1640625) rotate(0 14 9.5)"><text x="0" y="15" font-family="Cascadia, Segoe UI Emoji" font-size="16px" fill="#000000" text-anchor="start" style="white-space: pre;" direction="ltr">AST</text></g><g><g transform="translate(256.1029559937618 110.30397043533321) rotate(0 -7.253641350627873 8.679483633424752)"><path d="M0.8946226604282856 1.1304415337741374 C-1.770420582468313 3.6137906260669297, -12.332514611755819 13.115810704916747, -15.054080224037182 15.607867225188055 M-0.09483917218632998 0.6783193936664613 C-2.8997826658158274 3.2266653582055187, -12.78435994888036 13.929542366178739, -15.40190536168405 16.680647873183005" stroke="#000000" stroke-width="1" fill="none"></path></g></g><g><g transform="translate(270.6152343750001 112.60091145833337) rotate(0 10.089218679318847 8.239332757497493)"><path d="M-0.9464446194469929 0.571774674206972 C2.5556357548468704 3.472580372707705, 17.2827709336248 14.131027799927494, 21.12488197808468 16.65231308216846 M0.7575332260038703 -0.17364756717346608 C4.103595966323182 2.439948545720215, 16.719664096491858 12.010892555507697, 20.247868302951915 14.845200748403208" stroke="#000000" stroke-width="1" fill="none"></path></g></g><g><g transform="translate(231.2366993510476 159.56604771766672) rotate(0 -8.244386962656876 7.864041483971846)"><path d="M0.43623098060488696 -0.29433522149920466 C-2.068183609719079 2.29470220430494, -13.41281533775231 13.119466128140722, -16.05283402353526 15.9632116533101 M-0.7938864839170128 -1.4944651581253856 C-3.353871282373246 1.2150555150184852, -14.43181855602501 13.935116886595297, -16.925004905918623 17.222548126069125" stroke="#000000" stroke-width="1" fill="none"></path></g></g><g transform="translate(420.04231770833354 85.52571614583337) rotate(0 15.888671875 13.623046875)"><path d="M-1.1738216690719128 -1.5457877703011036 L31.055883545428514 -1.6055348701775074 L31.00362541154027 27.08817796036601 L1.2469185777008533 25.25275794789195" stroke="none" stroke-width="0" fill="#228be6"></path><path d="M-0.17695697024464607 -1.8899106793105602 C8.253285348906504 1.4028593387778527, 18.076758106290075 1.6245803919013269, 32.287684481590986 -1.3425453715026379 M-0.6771040465682745 -0.4894318971782923 C13.331709239431802 0.16401319832912126, 26.331926105143793 -1.0080951538551743, 31.869365701451898 -0.008381465449929237 M31.66171268746257 -1.6270197443664074 C29.86776030045621 7.942186705182394, 33.60114598256223 12.791319454780023, 30.696464460343122 28.121902722865343 M30.973359594121575 0.8808115925639868 C31.434626363601637 7.755874679834962, 31.437729321804 15.950905037003398, 31.58001954294741 28.20929511450231 M31.83150951191783 25.88158728554845 C21.95021577805528 26.453090807460466, 8.225580216800154 28.86944534447066, -0.2307426519691944 29.067540545016527 M32.29837805964053 28.09325440786779 C23.032584560070973 27.28102209120152, 14.854996398025833 26.922058422855116, -0.383831849321723 27.298895141109824 M0.3186395578086376 28.296188730746508 C1.1633933354805777 15.642640026173467, 1.254269557137377 8.040746137274251, 1.7461754493415356 1.6351151652634144 M-0.32308136485517025 27.785530826076865 C-1.0235214273325255 17.24536467092912, 0.15697639781319594 10.004535902866337, -0.15689306519925594 0.614849766716361" stroke="#000000" stroke-width="1" fill="none"></path></g><g transform="translate(388.5384114583334 128.06803385416663) rotate(0 15.888671875 13.623046875)"><path d="M-1.5457877703011036 -0.7214602045714855 L30.171808879822493 -0.7737183384597301 L31.61942796036601 28.493012327700853 L-1.9933358021080494 26.933590192347765" stroke="none" stroke-width="0" fill="#fa5252"></path><path d="M-1.8899106793105602 0.1215989999473095 C12.587077065752966 1.8415015207338001, 23.69054872805282 0.5384568439530995, 30.434798378497362 1.9923721961677074 M-0.4894318971782923 0.6328913066536188 C12.686696612534433 1.149455920010587, 23.90502139605087 0.30718763187505826, 31.76896228455007 -0.5817187335342169 M30.150324005633593 -1.8700803108513355 C32.95629144678787 9.642102109330153, 31.216552386385956 14.476714186494064, 32.65315272286534 27.421022932976484 M32.65815534256399 -0.34361534379422665 C30.872634914640003 7.842295313366778, 30.655530300859027 16.168291190864696, 32.74054511450231 27.93915964104235 M30.41283728554845 29.154548209160566 C18.123635006453696 27.174101299190443, 7.881082660220272 27.023957318210524, 1.8214467950165272 26.304335992783308 M32.62450440786779 26.53820968605578 C21.318986685921118 26.563067513625356, 10.773316604965657 27.027832764308187, 0.05280139110982418 28.022044012323022 M1.0500949807465076 28.380909364670515 C-1.5824905170356942 20.58373466942794, 1.103605078324108 13.216167365542788, 1.6351151652634144 0.6441424302756786 M0.5394370760768652 26.413193056359887 C-0.8520375183379656 17.513655419581482, 0.9584800907814497 6.929129760952488, 0.614849766716361 -0.5869108345359564" stroke="#000000" stroke-width="1" fill="none"></path></g><g transform="translate(451.6373697916669 126.73339843749989) rotate(0 15.888671875 13.623046875)"><path d="M-0.7214602045714855 -1.6055348701775074 L31.00362541154027 -0.15791578963398933 L33.02426232770085 25.25275794789195 L-0.31250355765223503 26.386862318962812" stroke="none" stroke-width="0" fill="#12b886"></path><path d="M0.1215989999473095 1.7053264565765858 C14.371259711359016 2.2273292162662983, 25.626089337565645 -1.0422636649363994, 33.76971594616771 1.7982812114059925 M0.6328913066536188 0.29626347683370113 C11.789996149633225 -0.7203164189621021, 21.803433771543496 0.14714699093856323, 31.195625016465783 -0.14498643018305302 M29.907263439148664 1.353314895182848 C33.62489664740315 6.043731975831179, 30.680711986491588 13.736121254965838, 31.952272932976484 27.252685207873583 M31.433728406205773 -0.6562602911144495 C31.217777087562354 4.8159777776490955, 31.36096526610163 12.341886729591351, 32.47040964104235 28.229720255360007 M33.685798209160566 26.251291889697313 C20.14555277637919 28.450844471857636, 8.444216492767737 28.850738590166657, -0.941757757216692 27.657395143061876 M31.06945968605578 26.974443098530173 C18.329753598281968 26.884684584549177, 6.195525797251317 27.568100295475233, 0.7759502623230219 27.14120634458959 M1.134815614670515 25.93062951043248 C1.182283420004751 17.772634206110524, 1.7027670330189721 7.193027115899891, 0.6441424302756786 1.3992518372833729 M-0.8329006936401129 26.29671104811132 C0.4356241830628278 20.906852367737883, -0.0688660136420367 13.460190937730657, -0.5869108345359564 -0.7728938851505518" stroke="#000000" stroke-width="1" fill="none"></path></g><g transform="translate(470.250651041667 174.56217447916652) rotate(0 15.888671875 13.623046875)"><path d="M-1.6055348701775074 -0.7737183384597301 L31.61942796036601 1.2469185777008533 L29.78400794789195 26.933590192347765 L-0.8592314310371876 27.285686153918505" stroke="none" stroke-width="0" fill="#fab005"></path><path d="M1.7053264565765858 1.813385408371687 C11.17908951107893 0.4910202654860768, 17.1615386312551 1.973051730062798, 33.57562496140599 0.8323557786643505 M0.29626347683370113 0.9342902395874262 C6.505701445417799 -0.10909409462728947, 14.754711176086857 -0.782834779613404, 31.632357319816947 -0.6399713661521673 M33.13065864518285 1.8633053712546825 C31.16926992234039 6.935424096827774, 32.4315030604248 16.207535955945787, 31.783935207873583 25.422356765717268 M31.12108345888555 -0.3405123855918646 C31.143965597375427 5.785961149489594, 32.98053186677316 12.659636604126717, 32.76097025536001 27.881133982911706 M30.782541889697313 27.165495079010725 C23.57963109991033 27.318579164930632, 14.36025989142217 26.607564059683135, 0.4113013930618763 29.175638239830732 M31.505693098530173 26.397496649995446 C19.957817668884672 26.637315148327254, 9.452321618511629 27.797097259972, -0.10488740541040897 28.22614718414843 M-1.3154642395675182 28.471785586327314 C1.227576424333165 20.3843569111159, 1.4920602338042954 10.674411603824407, 1.3992518372833729 -0.7145624943077564 M-0.9493827018886805 27.59369088150561 C0.7141593757605733 19.795643075372936, 0.46787423524619953 12.072067696608428, -0.7728938851505518 -0.36073010228574276" stroke="#000000" stroke-width="1" fill="none"></path></g><g transform="translate(421.59179687500017 57.299804687500114) rotate(0 14 9.5)"><text x="0" y="15" font-family="Cascadia, Segoe UI Emoji" font-size="16px" fill="#000000" text-anchor="start" style="white-space: pre;" direction="ltr">AST</text></g><g><g transform="translate(427.1641539104286 109.43971262283333) rotate(0 -7.795204742313388 8.759772663499803)"><path d="M1.0880312450230123 1.156228505820036 C-1.5726540877173363 3.600258750456578, -13.209491769348592 12.951436544150146, -15.891152596473706 15.687377341765204 M0.20010891932062824 0.7176445260364561 C-2.598188761320588 3.816029247899732, -14.121750114209341 14.28887177100967, -16.67844072964975 16.801900800963157" stroke="#000000" stroke-width="1" fill="none"></path></g></g><g><g transform="translate(441.6764322916669 111.73665364583337) rotate(0 11.388609298408653 8.334106716716917)"><path d="M1.156228505820036 0.3062044389545917 C4.349705211901009 2.9993418330119654, 16.6986688513723 14.539415389382144, 20.18405611043179 17.246855609367252 M0.3041097420360894 -0.5786421759333462 C3.7895518883307426 2.328259772684212, 18.87890842105679 13.24368362942604, 22.473108854781252 15.751878102381365" stroke="#000000" stroke-width="1" fill="none"></path></g></g><g><g transform="translate(469.1308593750003 156.6162109375001) rotate(0 10.067200443410968 7.559778368434195)"><path d="M0.02540440633893004 -0.10390161350369453 C3.8049435914390677 2.8111605146692793, 17.940570143279132 13.556677024149202, 21.554797896494506 16.32361064280069 M-1.420397009672597 -1.2040539059322328 C2.348790417126282 1.431283262211616, 17.11280789121471 11.745007622445799, 20.903490078526897 14.343929528367358" stroke="#000000" stroke-width="1" fill="none"></path></g></g><g><g transform="translate(326.63248697916674 135.3125) rotate(0 25.52857677783969 0.6143183637342418)"><path d="M-0.05074257776141167 1.0050288788974286 C8.649022640867353 1.1705735238889854, 43.82728733561099 1.580358357479175, 52.593674716104985 1.6642783991992474 M-1.5365211604256184 0.48706509497948014 C6.983691631566927 0.2074235830424977, 42.82845492983334 -0.738700935371841, 51.72386121280794 -0.3433392524998635" stroke="#000000" stroke-width="1" fill="none"></path></g><g transform="translate(326.63248697916674 135.3125) rotate(0 25.52857677783969 0.6143183637342418)"><path d="M28.717706493811367 8.791583949792773 C35.574865348691695 5.766650544572704, 43.53227189096966 2.1287834730651687, 52.43215264283423 1.5922795466799289 M26.258316868694184 7.594989918265135 C31.7894565124135 6.7397460741121495, 38.250883852860696 5.675136590627871, 51.915851370397256 -0.7864422586094588" stroke="#000000" stroke-width="1" fill="none"></path></g><g transform="translate(326.63248697916674 135.3125) rotate(0 25.52857677783969 0.6143183637342418)"><path d="M28.779835394277786 -9.152249346680438 C35.7166475798682 -6.203283139001263, 43.65336994388093 -3.867224326104859, 52.43215264283423 1.5922795466799289 M26.320445769160603 -10.348843378208077 C31.997164297825776 -7.386340644885613, 38.44537354319887 -4.6333500626038795, 51.915851370397256 -0.7864422586094588" stroke="#000000" stroke-width="1" fill="none"></path></g></g><g><g transform="translate(494.05031672137824 123.47935606983492) rotate(0 43.43540168809693 -20.60916693296133)"><path d="M1.1697505004703996 0.22640820667147632 C15.160532857378286 -6.592428204205631, 70.14692585865637 -34.711810355320566, 84.17508233055449 -41.44474207259416 M0.32473078387789434 -0.7003314301650971 C14.690505506324854 -7.362690904403848, 72.45970765037133 -34.13194248290173, 86.54607259231597 -40.473816584597145" stroke="#000000" stroke-width="1" fill="none"></path></g><g transform="translate(494.05031672137824 123.47935606983492) rotate(0 43.43540168809693 -20.60916693296133)"><path d="M65.56340674841348 -20.49087196082971 C70.2990841621439 -25.483788328491684, 79.23977920143841 -32.18519506696528, 87.67342162999302 -42.208418875734125 M65.60413669021372 -18.41585132160387 C72.08408014659074 -26.810456250354644, 81.00980583342962 -34.823026503041106, 86.01966286758869 -40.79763889479152" stroke="#000000" stroke-width="1" fill="none"></path></g><g transform="translate(494.05031672137824 123.47935606983492) rotate(0 43.43540168809693 -20.60916693296133)"><path d="M57.02014104782585 -39.14918414481362 C64.40014492237434 -38.269664705366, 76.06784196466344 -39.01535655898904, 87.67342162999302 -42.208418875734125 M57.06087098962609 -37.07416350558778 C66.63786436779849 -39.00231281657592, 78.55920267358944 -40.4725282619146, 86.01966286758869 -40.79763889479152" stroke="#000000" stroke-width="1" fill="none"></path></g></g><g transform="translate(597.0546875000002 38.4765625) rotate(0 48.160807291666686 40.7421875)"><path d="M0.14396216347813606 1.1975932531058788 C32.608498664098704 0.9740507142820809, 61.79156009758059 -2.6316596729478388, 95.69791672502959 1.4806818179786205 M0.5481265392154455 0.6161744687706232 C37.84807088822589 -0.8989733829578959, 76.69692537822755 -0.577518679150065, 96.97796974641585 0.9200771544128656 M95.94609616075957 1.3502239398658276 C97.30958991300483 17.92480291124957, 97.56843941461463 33.50711427399074, 95.74937806402647 83.05535153672099 M96.92358980638289 -0.05400817655026913 C97.4038776083942 27.016637826323855, 96.11161201438861 52.98823330734739, 96.44065288764739 81.58236254192889 M95.48507581030333 80.92126206681132 C69.81841697925 82.19584001453586, 38.24357409668301 81.09312797935672, 1.8669086880981922 83.03365818783641 M95.54998449546599 82.12840355373919 C60.35010238862137 81.30615745817279, 24.315219289955465 81.09944062267398, -0.6871021781116724 82.37513537146151 M-1.5475705675780773 82.70550743862987 C1.2809271469261148 59.21771698280645, 1.5608261480476358 34.64171165271545, 0.6235473342239857 -0.746629673987627 M0.7251011338084936 80.84120506979525 C-0.5796214929563576 60.185878067291924, -0.7942160359365517 37.33298980075051, 0.6353336181491613 0.1890816781669855" stroke="#000000" stroke-width="1" fill="none"></path></g><g><g transform="translate(611.9602864583336 62.236328125) rotate(0 30.68097433141901 2.2984875836937135)"><path d="M0.08637729808688155 0.7185559518635272 C3.2939710967242717 -0.08195391156607845, 13.749906646460296 -5.150344235946772, 18.3096649043262 -3.9299866033097484 C22.869423162192106 -2.709628970672725, 23.430001198500396 5.704432673669517, 27.444926845282318 8.04070174768567 C31.45985249206424 10.376970821701823, 36.52514625713229 10.684912928690514, 42.39921878501773 10.087627840787173 C48.27329131290317 9.490342752883832, 59.424819361418486 5.441072115053733, 62.68936201259494 4.4569912202656266 M-1.327413349756971 0.05019388125278046 C1.8578060606028886 -1.1444125268598049, 12.478704587211833 -6.974946218471391, 17.68415445297025 -5.524984006326063 C22.88960431872867 -4.075021794180735, 25.777702752640472 6.4961525692801025, 29.905285844793543 8.749967154124752 C34.03286893694661 11.003781738969401, 37.12622727571986 8.566761169492578, 42.449653005888685 7.997903502741829 C47.773078736057506 7.429045835991079, 58.9212511178758 6.08838806605277, 61.84584022580646 5.336821153620258" stroke="#000000" stroke-width="1" fill="none"></path></g></g><g><g transform="translate(609.7141927083336 80.65755208333326) rotate(0 31.734119534655463 2.1720121796576564)"><path d="M0.7185559518635272 0.6143524043262005 C0.9976901856561501 0.46219659969210636, 1.0334665279421609 0.2605133512781854, 2.547877980023623 -0.8265575297176837 C4.062289432105085 -1.9136284107135528, 5.372401423669479 -7.045817284534451, 9.805024664352299 -5.908072881649014 C14.237647905035118 -4.770328478763577, 22.75414035924609 3.3874929725295906, 29.143617424120542 5.9999088875949385 C35.53309448899499 8.612324802660286, 42.360559962276 10.132647355977001, 48.141887053599 9.766422608743074 C53.923214144922 9.400197861509147, 61.4547000548078 5.020529654870392, 63.831579972058535 3.8025604041913765 M-0.36334090274758646 -0.10871652874164273 C-0.23069225065099705 -0.13638638260774308, 0.051668888242507816 1.0566474093383098, 2.12740986215882 0.2769250184018164 C4.203150836075132 -0.5027973725346769, 7.469518043940015 -5.419440205522578, 12.091104940750288 -4.787050874360602 C16.712691837560563 -4.1546615431986265, 24.012121341339235 1.5374795905138399, 29.85693124302046 4.071261005373671 C35.701741144701685 6.605042420233502, 41.81459668001682 10.569049423044103, 47.15996435083763 10.415637614798385 C52.50533202165845 10.262225806552667, 59.34887945086903 4.144156926345663, 61.929137267945336 3.1507901558993625" stroke="#000000" stroke-width="1" fill="none"></path></g></g><g><g transform="translate(609.102213541667 100.93424479166652) rotate(0 33.692563399891355 -2.358052226467123)"><path d="M0.6143524043262005 1.0049092300236226 C1.832096773303211 -0.08050570678379154, 3.70669390683369 -4.7171168054971115, 7.392843511948945 -5.793933668980958 C11.078993117064199 -6.870750532464804, 19.282850250187856 -6.624657383809449, 22.73125003501773 -5.455991950879456 C26.179649819847604 -4.287326517949463, 24.749255125307304 -0.026050280779562396, 28.083242220928195 1.218058928598998 C31.417229316549086 2.4621681379775584, 36.097816626810314 2.683541200641173, 42.73517260874307 2.008663305391906 C49.37252859067583 1.3337854101426387, 63.93600274514821 -2.096276277220905, 67.90737811252475 -2.8312084428966044 M-0.5222513127420099 0.4868826304469258 C1.0675899699899407 -0.5584084416501576, 5.95563230771878 -3.561567681306528, 9.670855345219957 -4.864729843974697 C13.386078382721134 -6.167892006642866, 19.164624053859676 -8.00138034129201, 21.76908691226505 -7.332090345562087 C24.373549770670422 -6.662800349832164, 22.00537448458263 -2.5284587015118074, 25.297632495652188 -0.848989869595157 C28.589890506721744 0.8304789623214932, 34.7309394606192 2.7058519892819253, 41.52263497868238 2.7447226459378133 C48.31433049674557 2.7835933025937014, 61.82008122290898 -0.11407628676025583, 66.04780560403131 -0.6157659296598283" stroke="#000000" stroke-width="1" fill="none"></path></g></g><g transform="translate(591.6770833333335 10) rotate(0 51.5 9.5)"><text x="0" y="15" font-family="Cascadia, Segoe UI Emoji" font-size="16px" fill="#000000" text-anchor="start" style="white-space: pre;" direction="ltr">Source code</text></g><g transform="translate(599.3007812500002 179.2187499999999) rotate(0 46.72363281250006 22.236328125)"><path d="M0.5211529918015003 0.5760672502219677 C19.75655928075687 1.1878779303844569, 42.23514870569857 1.3530797135646937, 93.30904259160172 -0.16404517367482185 M0.3002640809863806 0.047453293576836586 C35.07858304721053 -0.4011511627710215, 68.20402992786339 0.06701298317548121, 93.48148693703126 -0.10304694436490536 M93.46219028905045 0.4284583739936352 C91.12027662766388 13.696105896695373, 93.53802352917603 25.302296357629533, 92.20310189202439 43.44510177895427 M92.70167364738893 -0.4703512694686651 C93.33549496773314 10.386228850202317, 94.29391983393263 21.449056299585212, 92.80283935926866 45.37238312698901 M93.48243977502 46.36405185982585 C58.27900411471826 44.191072809535214, 24.082667606027854 43.19179247601623, -0.17409048601984978 44.950805585831404 M92.94552667997789 45.032041082158685 C61.98997975180653 45.32504847303589, 30.177337105251382 44.766750064050754, 0.15260936878621578 45.07949692942202 M0.7812422700226307 43.81827251240611 C0.4691832684937253 26.214786525848464, 1.3645226382675901 12.213271211898238, 0.7596187777817249 -0.44197769835591316 M0.2632074560970068 43.759769508615136 C0.26558608573723175 27.52254732572692, -0.6570582314128842 12.338374230363115, 0.1313218679279089 -0.9621132519096136" stroke="#000000" stroke-width="1" fill="none"></path></g><g><g transform="translate(614.2063802083336 202.9785156249999) rotate(0 30.668554904381722 2.301942370266147)"><path d="M0.3126917950809003 0.3456403501331806 C3.002138315886259 -0.3421177432768937, 12.50020490810275 -5.9029564929505565, 17.300653778761625 -4.306028730919001 C22.101102649420497 -2.709100968887446, 24.883743368834256 7.6927368595368275, 29.115385019034147 9.927206922322512 C33.34702666923404 12.161676985108196, 37.15650225803256 10.070432385553916, 42.69050367996097 9.100791645795107 C48.22450510188938 8.131150906036298, 59.03452161476016 4.978543171038231, 62.31939355060458 4.109362483769655 M-0.9822837418410928 -0.5185024113859982 C1.412761069824919 -1.5411623702187982, 11.18290943621658 -7.512679910402163, 16.145412486484275 -6.098448250930174 C21.10791553675197 -4.684216591458185, 24.33465956239961 5.258316452727749, 28.792734559765087 7.966887545445934 C33.25080955713056 10.675458638164118, 37.47904517709277 10.679678341209268, 42.89386247067712 10.152978305378928 C48.30867976426147 9.626278269548589, 58.32604705422185 5.993031426429128, 61.28163832127117 4.806687330463902" stroke="#000000" stroke-width="1" fill="none"></path></g></g><g transform="translate(593.9231770833335 150.7421874999999) rotate(0 47 9.5)"><text x="0" y="15" font-family="Cascadia, Segoe UI Emoji" font-size="16px" fill="#000000" text-anchor="start" style="white-space: pre;" direction="ltr">Source map</text></g><g><g transform="translate(498.64450001163107 150.409287203732) rotate(0 47.05080260703957 25.890057858427326)"><path d="M0.28792450502514844 0.0037820689380168027 C16.053264743217465 8.585112824912896, 79.47687929038523 42.8536910587352, 95.12165907325527 51.861282953626095 M-1.0200538591761141 -1.039836290208623 C14.55529539570884 7.616739236114329, 77.98475545115402 43.93384752909544, 94.25984470581008 52.819952007063286" stroke="#000000" stroke-width="1" fill="none"></path></g><g transform="translate(498.64450001163107 150.409287203732) rotate(0 47.05080260703957 25.890057858427326)"><path d="M64.65920093384469 48.25338372954019 C73.01941454995153 48.2396410431088, 86.85494632675513 50.213604341773824, 95.19407147576405 52.880364454962866 M65.39416006122613 47.46542155922242 C74.201047239605 49.444593233363406, 83.11123025715258 51.44449848831957, 94.30954838392628 52.06619835426714" stroke="#000000" stroke-width="1" fill="none"></path></g><g transform="translate(498.64450001163107 150.409287203732) rotate(0 47.05080260703957 25.890057858427326)"><path d="M74.69720706014337 30.354824139611463 C79.65867260848185 36.524683643272155, 90.03977711772205 44.65816423248466, 95.19407147576405 52.880364454962866 M75.43216618752481 29.566861969293694 C81.04924287071216 36.975054827740216, 86.86306610034111 44.49601471034045, 94.30954838392628 52.06619835426714" stroke="#000000" stroke-width="1" fill="none"></path></g></g><g transform="translate(138.17708333333348 98.81510416666663) rotate(0 23.5 9.5)"><text x="0" y="15" font-family="Cascadia, Segoe UI Emoji" font-size="16px" fill="#000000" text-anchor="start" style="white-space: pre;" direction="ltr">parse</text></g><g transform="translate(311.1907552083335 89.42578125) rotate(0 42 9.5)"><text x="0" y="15" font-family="Cascadia, Segoe UI Emoji" font-size="16px" fill="#000000" text-anchor="start" style="white-space: pre;" direction="ltr">transform</text></g><g transform="translate(475.5000000000002 62.86328125) rotate(331.1885487263165 37.5 9.5)"><text x="0" y="15" font-family="Cascadia, Segoe UI Emoji" font-size="16px" fill="#000000" text-anchor="start" style="white-space: pre;" direction="ltr">generate</text></g></svg>